<svg xmlns="http://www.w3.org/2000/svg" viewBox="0 0 1826 430" width="1826" height="430" role="img" aria-labelledby="title desc">
  <title id="title">Radroots wordmark - black tight</title>
  <desc id="desc">Custom vector-traced Radroots full wordmark based on the approved organic hand-lettered concept.</desc>
  <path d="M 384.0 425.5 L 375.0 424.5 L 365.0 419.5 L 357.5 412.0 L 348.5 398.0 L 341.0 393.5 L 337.0 393.5 L 330.0 396.5 L 311.0 410.5 L 292.0 419.5 L 289.0 419.5 L 281.0 422.5 L 269.0 423.5 L 268.0 424.5 L 254.0 424.5 L 253.0 423.5 L 242.0 422.5 L 226.0 417.5 L 214.0 410.5 L 201.5 399.0 L 192.5 384.0 L 188.5 369.0 L 188.5 350.0 L 189.5 349.0 L 189.5 344.0 L 194.5 329.0 L 206.5 308.0 L 227.0 286.5 L 242.0 275.5 L 260.0 266.5 L 281.0 258.5 L 284.5 254.0 L 284.5 252.0 L 280.0 247.5 L 274.0 244.5 L 267.5 239.0 L 264.5 235.0 L 261.5 227.0 L 261.5 220.0 L 264.5 211.0 L 273.5 199.0 L 287.0 187.5 L 305.0 177.5 L 323.0 170.5 L 339.0 167.5 L 344.0 165.5 L 362.0 164.5 L 363.0 163.5 L 395.0 164.5 L 412.0 168.5 L 426.0 176.5 L 432.5 183.0 L 436.5 189.0 L 441.5 203.0 L 441.5 229.0 L 439.5 235.0 L 439.5 239.0 L 435.5 255.0 L 433.5 259.0 L 433.5 262.0 L 431.5 266.0 L 431.5 269.0 L 426.5 283.0 L 426.5 286.0 L 424.5 290.0 L 424.5 293.0 L 421.5 300.0 L 419.5 308.0 L 419.5 313.0 L 418.5 314.0 L 418.5 327.0 L 419.5 330.0 L 427.0 336.5 L 432.0 336.5 L 441.0 331.5 L 453.5 319.0 L 470.5 296.0 L 473.5 289.0 L 476.5 275.0 L 482.5 259.0 L 489.5 245.0 L 499.5 229.0 L 519.5 205.0 L 540.0 187.5 L 551.0 180.5 L 567.0 172.5 L 593.0 164.5 L 608.0 163.5 L 609.0 162.5 L 635.0 163.5 L 636.0 164.5 L 650.0 166.5 L 671.0 173.5 L 677.0 173.5 L 687.0 168.5 L 696.5 158.0 L 702.5 148.0 L 706.5 136.0 L 707.5 132.0 L 706.5 118.0 L 704.5 114.0 L 697.0 106.5 L 670.0 92.5 L 661.0 85.5 L 649.5 73.0 L 644.5 63.0 L 643.5 53.0 L 646.5 43.0 L 656.0 32.5 L 672.0 23.5 L 682.0 20.5 L 685.0 18.5 L 688.0 18.5 L 704.0 13.5 L 721.0 11.5 L 722.0 10.5 L 744.0 9.5 L 745.0 10.5 L 757.0 11.5 L 763.0 13.5 L 773.0 19.5 L 779.5 27.0 L 782.5 33.0 L 784.5 41.0 L 784.5 58.0 L 783.5 59.0 L 783.5 64.0 L 780.5 77.0 L 774.5 95.0 L 766.5 112.0 L 765.5 117.0 L 746.5 157.0 L 746.5 159.0 L 738.5 174.0 L 738.5 176.0 L 731.5 189.0 L 726.5 202.0 L 720.5 213.0 L 716.5 224.0 L 711.5 233.0 L 709.5 240.0 L 704.5 249.0 L 694.5 277.0 L 691.5 290.0 L 691.5 296.0 L 690.5 297.0 L 690.5 304.0 L 691.5 305.0 L 692.5 313.0 L 695.5 318.0 L 703.0 323.5 L 707.0 324.5 L 720.0 323.5 L 743.0 312.5 L 753.0 309.5 L 760.0 310.5 L 763.5 313.0 L 765.5 317.0 L 766.5 324.0 L 760.5 339.0 L 749.5 356.0 L 729.5 381.0 L 699.0 410.5 L 682.0 420.5 L 669.0 424.5 L 658.0 424.5 L 651.0 422.5 L 644.0 418.5 L 637.5 412.0 L 634.5 407.0 L 629.5 393.0 L 622.0 385.5 L 616.0 385.5 L 609.0 388.5 L 589.0 404.5 L 570.0 415.5 L 558.0 419.5 L 547.0 420.5 L 546.0 421.5 L 527.0 420.5 L 512.0 416.5 L 504.0 412.5 L 497.0 407.5 L 486.5 397.0 L 476.5 379.0 L 470.5 358.0 L 469.5 350.0 L 467.0 347.5 L 465.0 347.5 L 459.5 352.0 L 448.5 369.0 L 433.5 389.0 L 412.0 411.5 L 401.0 419.5 L 395.0 422.5 Z M 1686.0 424.5 L 1671.0 423.5 L 1670.0 422.5 L 1664.0 422.5 L 1663.0 421.5 L 1655.0 420.5 L 1638.0 414.5 L 1627.0 408.5 L 1617.0 401.5 L 1603.5 388.0 L 1594.5 376.0 L 1593.5 373.0 L 1586.0 364.5 L 1577.0 360.5 L 1567.0 361.5 L 1556.0 366.5 L 1540.0 378.5 L 1517.0 399.5 L 1500.0 411.5 L 1488.0 417.5 L 1465.0 423.5 L 1457.0 423.5 L 1456.0 424.5 L 1441.0 423.5 L 1440.0 422.5 L 1430.0 421.5 L 1417.0 416.5 L 1408.0 410.5 L 1399.5 401.0 L 1393.5 387.0 L 1393.5 381.0 L 1392.5 380.0 L 1393.5 363.0 L 1396.5 350.0 L 1402.5 335.0 L 1418.5 306.0 L 1455.5 254.0 L 1461.5 242.0 L 1461.5 237.0 L 1462.5 236.0 L 1460.5 229.0 L 1457.0 225.5 L 1451.0 222.5 L 1447.0 221.5 L 1420.0 221.5 L 1414.0 219.5 L 1408.5 215.0 L 1407.5 212.0 L 1408.5 203.0 L 1417.0 193.5 L 1430.0 186.5 L 1444.0 182.5 L 1467.0 178.5 L 1481.0 173.5 L 1488.0 169.5 L 1502.5 156.0 L 1510.5 139.0 L 1510.5 128.0 L 1508.0 123.5 L 1502.0 119.5 L 1494.0 118.5 L 1493.0 117.5 L 1487.0 117.5 L 1486.0 118.5 L 1480.0 118.5 L 1468.0 121.5 L 1463.0 121.5 L 1462.0 122.5 L 1450.0 122.5 L 1446.0 120.5 L 1440.5 115.0 L 1439.5 112.0 L 1440.5 106.0 L 1447.5 94.0 L 1471.0 70.5 L 1502.0 44.5 L 1520.0 31.5 L 1544.0 16.5 L 1556.0 10.5 L 1574.0 4.5 L 1596.0 3.5 L 1603.0 5.5 L 1608.0 8.5 L 1612.5 13.0 L 1615.5 19.0 L 1616.5 23.0 L 1616.5 37.0 L 1614.5 45.0 L 1604.5 65.0 L 1582.5 98.0 L 1574.5 108.0 L 1563.5 126.0 L 1556.5 140.0 L 1553.5 151.0 L 1554.5 162.0 L 1562.0 170.5 L 1569.0 173.5 L 1581.0 174.5 L 1582.0 175.5 L 1614.0 175.5 L 1622.0 177.5 L 1628.5 183.0 L 1630.5 187.0 L 1630.5 194.0 L 1626.0 202.5 L 1617.0 211.5 L 1608.0 216.5 L 1598.0 219.5 L 1584.0 220.5 L 1583.0 221.5 L 1545.0 221.5 L 1544.0 222.5 L 1540.0 222.5 L 1527.0 227.5 L 1521.0 231.5 L 1511.5 241.0 L 1505.5 249.0 L 1503.5 254.0 L 1500.5 257.0 L 1495.5 268.0 L 1493.5 270.0 L 1483.5 297.0 L 1482.5 310.0 L 1481.5 311.0 L 1482.5 322.0 L 1485.5 329.0 L 1492.0 336.5 L 1504.0 341.5 L 1524.0 340.5 L 1543.0 332.5 L 1582.0 305.5 L 1590.0 301.5 L 1599.0 298.5 L 1610.0 298.5 L 1620.0 302.5 L 1624.0 305.5 L 1645.0 328.5 L 1658.0 336.5 L 1672.0 340.5 L 1683.0 340.5 L 1694.0 337.5 L 1700.0 334.5 L 1707.5 327.0 L 1710.5 320.0 L 1709.5 310.0 L 1705.5 303.0 L 1698.0 295.5 L 1663.0 274.5 L 1644.5 256.0 L 1640.5 248.0 L 1638.5 240.0 L 1638.5 225.0 L 1640.5 217.0 L 1649.5 201.0 L 1664.0 186.5 L 1677.0 177.5 L 1687.0 172.5 L 1703.0 166.5 L 1719.0 162.5 L 1739.0 160.5 L 1740.0 159.5 L 1767.0 159.5 L 1768.0 160.5 L 1776.0 160.5 L 1777.0 161.5 L 1787.0 162.5 L 1797.0 165.5 L 1806.0 170.5 L 1815.5 179.0 L 1820.5 190.0 L 1821.5 206.0 L 1816.5 222.0 L 1809.5 233.0 L 1802.0 240.5 L 1788.0 248.5 L 1784.0 249.5 L 1769.0 248.5 L 1762.0 245.5 L 1742.0 231.5 L 1736.0 228.5 L 1725.0 225.5 L 1713.0 226.5 L 1709.0 228.5 L 1704.5 233.0 L 1702.5 238.0 L 1702.5 242.0 L 1705.5 248.0 L 1714.0 255.5 L 1749.0 277.5 L 1767.5 295.0 L 1773.5 303.0 L 1781.5 320.0 L 1782.5 328.0 L 1783.5 329.0 L 1783.5 336.0 L 1784.5 337.0 L 1784.5 346.0 L 1783.5 347.0 L 1782.5 358.0 L 1779.5 367.0 L 1773.5 379.0 L 1763.5 392.0 L 1753.0 401.5 L 1741.0 409.5 L 1729.0 415.5 L 1714.0 420.5 L 1699.0 422.5 L 1698.0 423.5 L 1687.0 423.5 Z M 1257.0 421.5 L 1255.0 420.5 L 1246.0 420.5 L 1233.0 417.5 L 1222.0 413.5 L 1215.0 409.5 L 1202.0 400.5 L 1196.5 395.0 L 1184.5 378.0 L 1179.5 365.0 L 1178.5 357.0 L 1177.5 356.0 L 1176.5 328.0 L 1177.5 327.0 L 1177.5 321.0 L 1178.5 320.0 L 1178.5 315.0 L 1181.5 305.0 L 1181.5 301.0 L 1186.5 287.0 L 1186.5 284.0 L 1194.5 264.0 L 1204.5 244.0 L 1219.5 221.0 L 1233.0 204.5 L 1245.0 192.5 L 1261.0 179.5 L 1278.0 169.5 L 1295.0 163.5 L 1304.0 162.5 L 1305.0 161.5 L 1328.0 160.5 L 1349.0 165.5 L 1365.0 174.5 L 1377.5 187.0 L 1384.5 198.0 L 1390.5 213.0 L 1393.5 226.0 L 1393.5 235.0 L 1394.5 236.0 L 1394.5 259.0 L 1393.5 260.0 L 1392.5 276.0 L 1385.5 305.0 L 1383.5 308.0 L 1377.5 326.0 L 1361.5 356.0 L 1346.5 376.0 L 1331.0 391.5 L 1315.0 403.5 L 1296.0 413.5 L 1281.0 418.5 L 1271.0 419.5 L 1270.0 420.5 L 1258.0 420.5 Z M 1048.0 420.5 L 1025.0 420.5 L 1024.0 419.5 L 1015.0 418.5 L 998.0 412.5 L 983.0 402.5 L 970.5 389.0 L 960.5 370.0 L 957.5 357.0 L 957.5 351.0 L 956.5 350.0 L 957.5 325.0 L 958.5 324.0 L 958.5 319.0 L 959.5 318.0 L 962.5 301.0 L 974.5 269.0 L 989.5 241.0 L 1009.5 212.0 L 1028.0 192.5 L 1053.0 174.5 L 1067.0 167.5 L 1079.0 163.5 L 1095.0 161.5 L 1096.0 160.5 L 1111.0 160.5 L 1112.0 161.5 L 1128.0 163.5 L 1145.0 171.5 L 1154.0 178.5 L 1159.5 184.0 L 1166.5 194.0 L 1172.5 208.0 L 1172.5 212.0 L 1175.5 222.0 L 1175.5 229.0 L 1176.5 230.0 L 1176.5 257.0 L 1175.5 258.0 L 1175.5 265.0 L 1174.5 266.0 L 1172.5 281.0 L 1167.5 301.0 L 1161.5 318.0 L 1149.5 343.0 L 1134.5 366.0 L 1122.5 380.0 L 1104.0 396.5 L 1089.0 406.5 L 1072.0 414.5 Z M 55.0 421.5 L 40.0 421.5 L 23.0 417.5 L 17.0 414.5 L 9.5 407.0 L 5.5 397.0 L 6.5 384.0 L 11.5 369.0 L 18.5 354.0 L 20.5 352.0 L 20.5 350.0 L 33.5 328.0 L 52.5 291.0 L 58.5 273.0 L 60.5 270.0 L 63.5 257.0 L 63.5 251.0 L 64.5 250.0 L 63.5 240.0 L 59.5 232.0 L 54.0 227.5 L 51.0 226.5 L 41.0 227.5 L 21.0 235.5 L 13.0 235.5 L 9.0 233.5 L 4.5 228.0 L 3.5 221.0 L 4.5 220.0 L 4.5 215.0 L 12.5 200.0 L 27.5 182.0 L 58.0 153.5 L 80.0 137.5 L 94.0 131.5 L 108.0 130.5 L 117.0 134.5 L 124.5 143.0 L 131.5 166.0 L 138.0 173.5 L 141.0 174.5 L 146.0 174.5 L 154.0 171.5 L 165.0 164.5 L 191.0 143.5 L 212.0 132.5 L 220.0 130.5 L 233.0 130.5 L 245.0 135.5 L 252.5 143.0 L 257.5 154.0 L 258.5 158.0 L 258.5 178.0 L 253.5 196.0 L 242.5 219.0 L 229.5 236.0 L 220.0 244.5 L 203.0 253.5 L 199.0 254.5 L 187.0 253.5 L 177.0 248.5 L 158.0 230.5 L 152.0 226.5 L 145.0 224.5 L 139.0 224.5 L 130.0 227.5 L 119.5 237.0 L 114.5 244.0 L 106.5 264.0 L 105.5 275.0 L 104.5 276.0 L 105.5 305.0 L 113.5 337.0 L 115.5 353.0 L 116.5 354.0 L 116.5 375.0 L 113.5 386.0 L 107.5 397.0 L 93.0 410.5 L 78.0 417.5 L 70.0 419.5 L 65.0 419.5 L 64.0 420.5 L 56.0 420.5 Z M 815.0 422.5 L 799.0 422.5 L 798.0 421.5 L 792.0 421.5 L 780.0 418.5 L 772.0 414.5 L 764.5 407.0 L 760.5 397.0 L 761.5 387.0 L 766.5 372.0 L 778.5 349.0 L 799.5 314.0 L 799.5 312.0 L 801.5 310.0 L 803.5 304.0 L 810.5 291.0 L 817.5 271.0 L 818.5 263.0 L 819.5 262.0 L 819.5 256.0 L 820.5 255.0 L 820.5 244.0 L 818.5 237.0 L 816.5 233.0 L 810.0 227.5 L 807.0 226.5 L 799.0 227.5 L 781.0 235.5 L 771.0 234.5 L 766.5 230.0 L 764.5 226.0 L 764.5 220.0 L 768.5 209.0 L 775.5 199.0 L 784.5 189.0 L 805.0 169.5 L 825.0 153.5 L 828.0 152.5 L 836.0 146.5 L 850.0 140.5 L 854.0 139.5 L 867.0 140.5 L 875.0 145.5 L 881.5 156.0 L 884.5 170.0 L 886.5 174.0 L 891.0 178.5 L 897.0 180.5 L 904.0 179.5 L 911.0 176.5 L 939.0 157.5 L 952.0 151.5 L 959.0 149.5 L 972.0 149.5 L 978.0 151.5 L 987.5 160.0 L 990.5 165.0 L 992.5 173.0 L 992.5 191.0 L 991.5 192.0 L 989.5 205.0 L 985.5 212.0 L 985.5 214.0 L 975.5 231.0 L 964.0 243.5 L 956.0 249.5 L 948.0 253.5 L 944.0 253.5 L 943.0 254.5 L 931.0 253.5 L 921.0 247.5 L 904.0 229.5 L 894.0 225.5 L 885.0 226.5 L 879.0 229.5 L 867.5 242.0 L 861.5 256.0 L 859.5 264.0 L 859.5 270.0 L 858.5 271.0 L 858.5 307.0 L 859.5 308.0 L 859.5 318.0 L 861.5 326.0 L 862.5 345.0 L 863.5 346.0 L 863.5 378.0 L 862.5 379.0 L 861.5 387.0 L 854.5 402.0 L 844.0 412.5 L 836.0 417.5 L 827.0 420.5 L 816.0 421.5 Z M 578.5 330.0 L 594.0 325.5 L 610.0 316.5 L 625.5 303.0 L 638.5 286.0 L 648.5 267.0 L 654.5 248.0 L 654.5 238.0 L 652.5 232.0 L 644.0 222.5 L 635.0 218.5 L 627.0 217.5 L 626.0 216.5 L 604.0 216.5 L 584.0 221.5 L 570.0 228.5 L 557.0 238.5 L 548.5 247.0 L 540.5 258.0 L 531.5 276.0 L 528.5 287.0 L 527.5 299.0 L 528.5 300.0 L 528.5 306.0 L 531.5 314.0 L 539.0 322.5 L 550.0 328.5 L 558.0 330.5 Z M 1289.5 327.0 L 1300.0 324.5 L 1310.0 319.5 L 1317.0 314.5 L 1326.5 305.0 L 1335.5 291.0 L 1341.5 274.0 L 1342.5 254.0 L 1341.5 253.0 L 1340.5 244.0 L 1335.5 234.0 L 1324.0 222.5 L 1318.0 219.5 L 1307.0 216.5 L 1296.0 216.5 L 1295.0 217.5 L 1286.0 218.5 L 1275.0 223.5 L 1266.0 229.5 L 1256.5 239.0 L 1249.5 248.0 L 1241.5 263.0 L 1236.5 280.0 L 1236.5 296.0 L 1237.5 300.0 L 1242.5 311.0 L 1249.0 318.5 L 1259.0 324.5 L 1268.0 327.5 Z M 1068.5 327.0 L 1082.0 323.5 L 1090.0 319.5 L 1101.0 311.5 L 1112.5 298.0 L 1116.5 291.0 L 1122.5 274.0 L 1123.5 252.0 L 1122.5 251.0 L 1121.5 243.0 L 1118.5 236.0 L 1109.0 224.5 L 1094.0 217.5 L 1079.0 216.5 L 1078.0 217.5 L 1069.0 218.5 L 1057.0 223.5 L 1048.0 229.5 L 1036.5 241.0 L 1030.5 249.0 L 1023.5 262.0 L 1018.5 278.0 L 1017.5 293.0 L 1018.5 294.0 L 1019.5 303.0 L 1024.5 313.0 L 1031.0 319.5 L 1042.0 325.5 L 1049.0 327.5 Z M 308.5 353.0 L 317.0 351.5 L 325.0 348.5 L 344.0 337.5 L 362.5 320.0 L 374.5 303.0 L 383.5 283.0 L 386.5 262.0 L 385.5 261.0 L 385.5 256.0 L 381.5 247.0 L 373.0 238.5 L 364.0 234.5 L 353.0 233.5 L 352.0 232.5 L 339.0 233.5 L 330.0 237.5 L 328.5 240.0 L 328.5 243.0 L 333.0 247.5 L 345.0 250.5 L 350.5 255.0 L 351.5 257.0 L 350.5 264.0 L 342.0 271.5 L 312.0 285.5 L 310.0 285.5 L 295.0 293.5 L 286.0 299.5 L 271.5 315.0 L 267.5 326.0 L 268.5 335.0 L 271.5 341.0 L 280.0 348.5 L 290.0 352.5 L 294.0 352.5 L 295.0 353.5 Z M 810.0 229.5 L 809.0 229.5 L 808.5 229.0 L 809.0 228.5 L 810.0 228.5 L 810.5 229.0 Z M 1024.0 195.5 L 1023.5 195.0 L 1024.0 194.5 L 1024.5 195.0 Z M 883.0 229.5 L 882.5 229.0 L 883.0 228.5 L 883.5 229.0 Z M 349.0 401.5 L 348.5 401.0 L 349.0 400.5 L 349.5 401.0 Z M 206.0 405.5 L 205.5 405.0 L 206.0 404.5 L 206.5 405.0 Z" fill="#000000" fill-rule="evenodd" clip-rule="evenodd"/>
</svg>
